<svg width="64" height="64" viewBox="0 0 100 155" xmlns="http://www.w3.org/2000/svg">
  <rect width="100" height="155" rx="18" fill="#09182e"/>
  <path d="M50,6 C90,6 94,38 94,56 Q94,80 70,91 L67,100 L33,100 L30,91 Q6,80 6,56 C6,38 10,6 50,6 Z" fill="#09182e" stroke="#16a34a" stroke-width="2.8" stroke-linejoin="round"/>
  <rect x="33" y="100" width="34" height="7" rx="0" fill="#09182e" stroke="#16a34a" stroke-width="2.2"/>
  <rect x="31" y="107" width="38" height="33" rx="1" fill="#09182e" stroke="#16a34a" stroke-width="2.2"/>
  <path d="M31,113 Q50,116 69,113" fill="none" stroke="#16a34a" stroke-width="1.6" stroke-linecap="round"/>
  <path d="M31,119 Q50,122 69,119" fill="none" stroke="#16a34a" stroke-width="1.6" stroke-linecap="round"/>
  <path d="M31,125 Q50,128 69,125" fill="none" stroke="#16a34a" stroke-width="1.6" stroke-linecap="round"/>
  <path d="M31,131 Q50,134 69,131" fill="none" stroke="#16a34a" stroke-width="1.6" stroke-linecap="round"/>
  <rect x="31" y="140" width="38" height="4" rx="1" fill="#16a34a" opacity="0.5"/>
  <rect x="36" y="144" width="28" height="8" rx="3" fill="#16a34a"/>
</svg>
